<?xml version="1.0" encoding="UTF-8" standalone="no"?>
<svg width="35.224895mm" height="41.118179mm" viewBox="0 0 35.224895 41.118179" version="1.1" id="petal-matrix"
    xmlns="http://www.w3.org/2000/svg" xmlns:svg="http://www.w3.org/2000/svg">
    <link xmlns="http://www.w3.org/1999/xhtml" rel="stylesheet" href="petal-matrix.css" type="text/css" />
    <defs id="clipPaths">
        <clipPath clipPathUnits="userSpaceOnUse" id="clipPath3200-9">
            <path d="M 50,70 H 1230 V 1660 H 50 Z" id="path3200-0" />
        </clipPath>
        <clipPath clipPathUnits="userSpaceOnUse" id="clipPath3202-1">
            <path d="M 50,70 H 1230 V 1660 H 50 Z" id="path3202-6" />
        </clipPath>
        <clipPath clipPathUnits="userSpaceOnUse" id="clipPath3204-4">
            <path d="M 50,70 H 1230 V 1660 H 50 Z" id="path3204-4" />
        </clipPath>
        <clipPath clipPathUnits="userSpaceOnUse" id="clipPath3206-8">
            <path d="M 50,70 H 1230 V 1660 H 50 Z" id="path3206-6" />
        </clipPath>
        <clipPath clipPathUnits="userSpaceOnUse" id="clipPath3208-1">
            <path d="M 50,70 H 1230 V 1660 H 50 Z" id="path3208-4" />
        </clipPath>
        <clipPath clipPathUnits="userSpaceOnUse" id="clipPath3210-0">
            <path d="M 50,70 H 1230 V 1660 H 50 Z" id="path3210-8" />
        </clipPath>
        <clipPath clipPathUnits="userSpaceOnUse" id="clipPath3212-1">
            <path d="M 50,70 H 1230 V 1660 H 50 Z" id="path3212-0" />
        </clipPath>
        <clipPath clipPathUnits="userSpaceOnUse" id="clipPath3214-3">
            <path d="M 50,70 H 1230 V 1660 H 50 Z" id="path3214-1" />
        </clipPath>
        <clipPath clipPathUnits="userSpaceOnUse" id="clipPath3216-1">
            <path d="M 50,70 H 1230 V 1660 H 50 Z" id="path3216-5" />
        </clipPath>
        <clipPath clipPathUnits="userSpaceOnUse" id="clipPath3218-0">
            <path d="M 50,70 H 1230 V 1660 H 50 Z" id="path3218-8" />
        </clipPath>
        <clipPath clipPathUnits="userSpaceOnUse" id="clipPath3220-4">
            <path d="M 50,70 H 1230 V 1660 H 50 Z" id="path3220-9" />
        </clipPath>
        <clipPath clipPathUnits="userSpaceOnUse" id="clipPath3222-3">
            <path d="M 50,70 H 1230 V 1660 H 50 Z" id="path3222-0" />
        </clipPath>
        <clipPath clipPathUnits="userSpaceOnUse" id="clipPath3224-5">
            <path d="M 50,70 H 1230 V 1660 H 50 Z" id="path3224-2" />
        </clipPath>
        <clipPath clipPathUnits="userSpaceOnUse" id="clipPath3226-3">
            <path d="M 50,70 H 1230 V 1660 H 50 Z" id="path3226-8" />
        </clipPath>
        <clipPath clipPathUnits="userSpaceOnUse" id="clipPath3228-7">
            <path d="M 50,70 H 1230 V 1660 H 50 Z" id="path3228-8" />
        </clipPath>
        <clipPath clipPathUnits="userSpaceOnUse" id="clipPath3230-0">
            <path d="M 50,70 H 1230 V 1660 H 50 Z" id="path3230-4" />
        </clipPath>
        <clipPath clipPathUnits="userSpaceOnUse" id="clipPath3232-5">
            <path d="M 50,70 H 1230 V 1660 H 50 Z" id="path3232-7" />
        </clipPath>
        <clipPath clipPathUnits="userSpaceOnUse" id="clipPath3234-1">
            <path d="M 50,70 H 1230 V 1660 H 50 Z" id="path3234-0" />
        </clipPath>
        <clipPath clipPathUnits="userSpaceOnUse" id="clipPath3236-6">
            <path d="M 50,70 H 1230 V 1660 H 50 Z" id="path3236-0" />
        </clipPath>
        <clipPath clipPathUnits="userSpaceOnUse" id="clipPath3238-3">
            <path d="M 50,70 H 1230 V 1660 H 50 Z" id="path3238-3" />
        </clipPath>
        <clipPath clipPathUnits="userSpaceOnUse" id="clipPath3240-5">
            <path d="M 50,70 H 1230 V 1660 H 50 Z" id="path3240-0" />
        </clipPath>
        <clipPath clipPathUnits="userSpaceOnUse" id="clipPath3242-2">
            <path d="M 50,70 H 1230 V 1660 H 50 Z" id="path3242-3" />
        </clipPath>
        <clipPath clipPathUnits="userSpaceOnUse" id="clipPath3244-2">
            <path d="M 50,70 H 1230 V 1660 H 50 Z" id="path3244-7" />
        </clipPath>
        <clipPath clipPathUnits="userSpaceOnUse" id="clipPath3246-1">
            <path d="M 50,70 H 1230 V 1660 H 50 Z" id="path3246-0" />
        </clipPath>
        <clipPath clipPathUnits="userSpaceOnUse" id="clipPath3248-0">
            <path d="M 50,70 H 1230 V 1660 H 50 Z" id="path3248-9" />
        </clipPath>
        <clipPath clipPathUnits="userSpaceOnUse" id="clipPath3250-7">
            <path d="M 50,70 H 1230 V 1660 H 50 Z" id="path3250-1" />
        </clipPath>
        <clipPath clipPathUnits="userSpaceOnUse" id="clipPath3252-7">
            <path d="M 50,70 H 1230 V 1660 H 50 Z" id="path3252-4" />
        </clipPath>
        <clipPath clipPathUnits="userSpaceOnUse" id="clipPath3254-5">
            <path d="M 50,70 H 1230 V 1660 H 50 Z" id="path3254-1" />
        </clipPath>
        <clipPath clipPathUnits="userSpaceOnUse" id="clipPath3256-7">
            <path d="M 50,70 H 1230 V 1660 H 50 Z" id="path3256-8" />
        </clipPath>
        <clipPath clipPathUnits="userSpaceOnUse" id="clipPath3258-2">
            <path d="M 50,70 H 1230 V 1660 H 50 Z" id="path3258-5" />
        </clipPath>
        <clipPath clipPathUnits="userSpaceOnUse" id="clipPath3260-4">
            <path d="M 50,70 H 1230 V 1660 H 50 Z" id="path3260-5" />
        </clipPath>
        <clipPath clipPathUnits="userSpaceOnUse" id="clipPath3262-3">
            <path d="M 50,70 H 1230 V 1660 H 50 Z" id="path3262-0" />
        </clipPath>
        <clipPath clipPathUnits="userSpaceOnUse" id="clipPath3264-1">
            <path d="M 50,70 H 1230 V 1660 H 50 Z" id="path3264-9" />
        </clipPath>
        <clipPath clipPathUnits="userSpaceOnUse" id="clipPath3266-4">
            <path d="M 50,70 H 1230 V 1660 H 50 Z" id="path3266-5" />
        </clipPath>
        <clipPath clipPathUnits="userSpaceOnUse" id="clipPath3268-9">
            <path d="M 50,70 H 1230 V 1660 H 50 Z" id="path3268-3" />
        </clipPath>
        <clipPath clipPathUnits="userSpaceOnUse" id="clipPath3270-9">
            <path d="M 50,70 H 1230 V 1660 H 50 Z" id="path3270-6" />
        </clipPath>
        <clipPath clipPathUnits="userSpaceOnUse" id="clipPath3272-6">
            <path d="M 50,70 H 1230 V 1660 H 50 Z" id="path3272-4" />
        </clipPath>
        <clipPath clipPathUnits="userSpaceOnUse" id="clipPath3274-0">
            <path d="M 50,70 H 1230 V 1660 H 50 Z" id="path3274-8" />
        </clipPath>
        <clipPath clipPathUnits="userSpaceOnUse" id="clipPath3276-2">
            <path d="M 50,70 H 1230 V 1660 H 50 Z" id="path3276-0" />
        </clipPath>
        <clipPath clipPathUnits="userSpaceOnUse" id="clipPath3278-6">
            <path d="M 50,70 H 1230 V 1660 H 50 Z" id="path3278-0" />
        </clipPath>
        <clipPath clipPathUnits="userSpaceOnUse" id="clipPath3280-7">
            <path d="M 50,70 H 1230 V 1660 H 50 Z" id="path3280-2" />
        </clipPath>
        <clipPath clipPathUnits="userSpaceOnUse" id="clipPath3282-9">
            <path d="M 50,70 H 1230 V 1660 H 50 Z" id="path3282-8" />
        </clipPath>
        <clipPath clipPathUnits="userSpaceOnUse" id="clipPath3284-1">
            <path d="M 50,70 H 1230 V 1660 H 50 Z" id="path3284-1" />
        </clipPath>
        <clipPath clipPathUnits="userSpaceOnUse" id="clipPath3286-6">
            <path d="M 50,70 H 1230 V 1660 H 50 Z" id="path3286-1" />
        </clipPath>
        <clipPath clipPathUnits="userSpaceOnUse" id="clipPath3288-1">
            <path d="M 50,70 H 1230 V 1660 H 50 Z" id="path3288-8" />
        </clipPath>
        <clipPath clipPathUnits="userSpaceOnUse" id="clipPath3290-1">
            <path d="M 50,70 H 1230 V 1660 H 50 Z" id="path3290-1" />
        </clipPath>
        <clipPath clipPathUnits="userSpaceOnUse" id="clipPath3292-5">
            <path d="M 50,70 H 1230 V 1660 H 50 Z" id="path3292-0" />
        </clipPath>
        <clipPath clipPathUnits="userSpaceOnUse" id="clipPath3294-0">
            <path d="M 50,70 H 1230 V 1660 H 50 Z" id="path3294-8" />
        </clipPath>
        <clipPath clipPathUnits="userSpaceOnUse" id="clipPath3296-3">
            <path d="M 50,70 H 1230 V 1660 H 50 Z" id="path3296-7" />
        </clipPath>
        <clipPath clipPathUnits="userSpaceOnUse" id="clipPath3298-0">
            <path d="M 50,70 H 1230 V 1660 H 50 Z" id="path3298-1" />
        </clipPath>
        <clipPath clipPathUnits="userSpaceOnUse" id="clipPath3300-3">
            <path d="M 50,70 H 1230 V 1660 H 50 Z" id="path3300-4" />
        </clipPath>
        <clipPath clipPathUnits="userSpaceOnUse" id="clipPath3302-3">
            <path d="M 50,70 H 1230 V 1660 H 50 Z" id="path3302-7" />
        </clipPath>
        <clipPath clipPathUnits="userSpaceOnUse" id="clipPath3304-7">
            <path d="M 50,70 H 1230 V 1660 H 50 Z" id="path3304-5" />
        </clipPath>
        <clipPath clipPathUnits="userSpaceOnUse" id="clipPath3306-1">
            <path d="M 50,70 H 1230 V 1660 H 50 Z" id="path3306-2" />
        </clipPath>
        <clipPath clipPathUnits="userSpaceOnUse" id="clipPath3308-6">
            <path d="M 50,70 H 1230 V 1660 H 50 Z" id="path3308-6" />
        </clipPath>
        <clipPath clipPathUnits="userSpaceOnUse" id="clipPath3310-5">
            <path d="M 50,70 H 1230 V 1660 H 50 Z" id="path3310-4" />
        </clipPath>
    </defs>
    <g id="layer1" transform="translate(-56.620833,-124.35417)">
        <g id="spiral-leds" style="display:inline" transform="matrix(0.26458333,0,0,0.26458333,51.461141,-99.009816)">
            <path class="spiral-led" id="led-5-7" data-row="5" data-col="7"
                d="m 475.16,1552.85 c 0,45.51 -68.281,45.51 -68.281,0 0,-45.51 68.281,-45.51 68.281,0"
                transform="matrix(0.13333333,0,0,-0.13333333,0,1056)" clip-path="url(#clipPath3200-9)" />
            <path class="spiral-led" id="led-5-6" data-row="5" data-col="6"
                d="m 397.379,1441.25 c 0,45.51 -68.238,45.51 -68.238,0 0,-45.51 68.238,-45.51 68.238,0"
                transform="matrix(0.13333333,0,0,-0.13333333,0,1056)" clip-path="url(#clipPath3202-1)" />
            <path class="spiral-led" id="led-6-4" data-row="6" data-col="4"
                d="m 560.121,1393.71 c 0,45.51 -68.281,45.51 -68.281,0 0,-45.51 68.281,-45.51 68.281,0"
                transform="matrix(0.13333333,0,0,-0.13333333,0,1056)" clip-path="url(#clipPath3204-4)" />
            <path class="spiral-led" id="led-6-5" data-row="6" data-col="5"
                d="m 649.379,1476.52 c 0,45.51 -68.25,45.51 -68.25,0 0,-45.5 68.25,-45.5 68.25,0"
                transform="matrix(0.13333333,0,0,-0.13333333,0,1056)" clip-path="url(#clipPath3206-8)" />
            <path class="spiral-led" id="led-6-6" data-row="6" data-col="6"
                d="m 770.352,1520.43 c 0,45.51 -68.282,45.51 -68.282,0 0,-45.51 68.282,-45.51 68.282,0"
                transform="matrix(0.13333333,0,0,-0.13333333,0,1056)" clip-path="url(#clipPath3208-1)" />
            <path class="spiral-led" id="led-6-7" data-row="6" data-col="7"
                d="m 899.961,1531.95 c 0,45.51 -68.281,45.51 -68.281,0 0,-45.5 68.281,-45.5 68.281,0"
                transform="matrix(0.13333333,0,0,-0.13333333,0,1056)" clip-path="url(#clipPath3210-0)" />
            <path class="spiral-led" id="led-6-3" data-row="6" data-col="3"
                d="m 493.16,1285.7 c 0,45.55 -68.281,45.55 -68.281,0 0,-45.5 68.281,-45.5 68.281,0"
                transform="matrix(0.13333333,0,0,-0.13333333,0,1056)" clip-path="url(#clipPath3212-1)" />
            <path class="spiral-led" id="led-5-5" data-row="5" data-col="5"
                d="m 359.219,1310.94 c 0,45.51 -68.239,45.51 -68.239,0 0,-45.55 68.239,-45.55 68.239,0"
                transform="matrix(0.13333333,0,0,-0.13333333,0,1056)" clip-path="url(#clipPath3214-3)" />
            <path class="spiral-led" id="led-5-4" data-row="5" data-col="4"
                d="m 347.699,1180.59 c 0,45.54 -68.25,45.54 -68.25,0 0,-45.51 68.25,-45.51 68.25,0"
                transform="matrix(0.13333333,0,0,-0.13333333,0,1056)" clip-path="url(#clipPath3216-1)" />
            <path class="spiral-led" id="led-6-2" data-row="6" data-col="2"
                d="m 471.68,1149.96 c 0,45.51 -68.282,45.51 -68.282,0 0,-45.51 68.282,-45.51 68.282,0"
                transform="matrix(0.13333333,0,0,-0.13333333,0,1056)" clip-path="url(#clipPath3218-0)" />
            <path class="spiral-led" id="led-5-3" data-row="5" data-col="3"
                d="m 363.551,1051.72 c 0,45.51 -68.281,45.51 -68.281,0 0,-45.51 68.281,-45.51 68.281,0"
                transform="matrix(0.13333333,0,0,-0.13333333,0,1056)" clip-path="url(#clipPath3220-4)" />
            <path class="spiral-led" id="led-6-1" data-row="6" data-col="1"
                d="m 537.07,1038.05 c 0,45.5 -68.281,45.5 -68.281,0 0,-45.511 68.281,-45.511 68.281,0"
                transform="matrix(0.13333333,0,0,-0.13333333,0,1056)" clip-path="url(#clipPath3222-3)" />
            <path class="spiral-led" id="led-5-1" data-row="5" data-col="1"
                d="m 547.148,916.371 c 0,45.5 -68.277,45.5 -68.277,0 0,-45.512 68.277,-45.512 68.277,0"
                transform="matrix(0.13333333,0,0,-0.13333333,0,1056)" clip-path="url(#clipPath3224-5)" />
            <path class="spiral-led" id="led-5-2" data-row="5" data-col="2"
                d="m 428.359,943.711 c 0,45.508 -68.281,45.508 -68.281,0 0,-45.512 68.281,-45.512 68.281,0"
                transform="matrix(0.13333333,0,0,-0.13333333,0,1056)" clip-path="url(#clipPath3226-3)" />
            <path class="spiral-led" id="led-7-1" data-row="7" data-col="1"
                d="m 590.352,1148.2 c 0,45.51 -68.282,45.51 -68.282,0 0,-45.5 68.282,-45.5 68.282,0"
                transform="matrix(0.13333333,0,0,-0.13333333,0,1056)" clip-path="url(#clipPath3228-7)" />
            <path class="spiral-led" id="led-7-2" data-row="7" data-col="2"
                d="m 634.262,1258.36 c 0,45.51 -68.242,45.51 -68.242,0 0,-45.51 68.242,-45.51 68.242,0"
                transform="matrix(0.13333333,0,0,-0.13333333,0,1056)" clip-path="url(#clipPath3230-0)" />
            <path class="spiral-led" id="led-7-3" data-row="7" data-col="3"
                d="m 724.262,1338.28 c 0,45.51 -68.242,45.51 -68.242,0 0,-45.51 68.242,-45.51 68.242,0"
                transform="matrix(0.13333333,0,0,-0.13333333,0,1056)" clip-path="url(#clipPath3232-5)" />
            <path class="spiral-led" id="led-7-4" data-row="7" data-col="4"
                d="m 831.559,1379.34 c 0,45.5 -68.278,45.5 -68.278,0 0,-45.51 68.278,-45.51 68.278,0"
                transform="matrix(0.13333333,0,0,-0.13333333,0,1056)" clip-path="url(#clipPath3234-1)" />
            <path class="spiral-led" id="led-7-5" data-row="7" data-col="5"
                d="m 948.199,1377.15 c 0,45.55 -68.277,45.55 -68.277,0 0,-45.51 68.277,-45.51 68.277,0"
                transform="matrix(0.13333333,0,0,-0.13333333,0,1056)" clip-path="url(#clipPath3236-6)" />
            <path class="spiral-led" id="led-7-6" data-row="7" data-col="6"
                d="m 1058.36,1330.35 c 0,45.51 -68.282,45.51 -68.282,0 0,-45.51 68.282,-45.51 68.282,0"
                transform="matrix(0.13333333,0,0,-0.13333333,0,1056)" clip-path="url(#clipPath3238-3)" />
            <path class="spiral-led" id="led-7-7" data-row="7" data-col="7"
                d="m 1131.8,1250.43 c 0,45.51 -68.28,45.51 -68.28,0 0,-45.51 68.28,-45.51 68.28,0"
                transform="matrix(0.13333333,0,0,-0.13333333,0,1056)" clip-path="url(#clipPath3240-5)" />
            <path class="spiral-led" id="led-0-1" data-row="0" data-col="1"
                d="m 710.59,1163.32 c 0,45.51 -68.289,45.51 -68.289,0 0,-45.51 68.289,-45.51 68.289,0"
                transform="matrix(0.13333333,0,0,-0.13333333,0,1056)" clip-path="url(#clipPath3242-2)" />
            <path class="spiral-led" id="led-0-2" data-row="0" data-col="2"
                d="m 815,1231.72 c 0,45.51 -68.281,45.51 -68.281,0 0,-45.51 68.281,-45.51 68.281,0"
                transform="matrix(0.13333333,0,0,-0.13333333,0,1056)" clip-path="url(#clipPath3244-2)" />
            <path class="spiral-led" id="led-0-3" data-row="0" data-col="3"
                d="m 948.91,1215.9 c 0,45.51 -68.281,45.51 -68.281,0 0,-45.55 68.281,-45.55 68.281,0"
                transform="matrix(0.13333333,0,0,-0.13333333,0,1056)" clip-path="url(#clipPath3246-1)" />
            <path class="spiral-led" id="led-0-4" data-row="0" data-col="4"
                d="m 1047.54,1138.83 c 0,45.54 -68.239,45.54 -68.239,0 0,-45.51 68.239,-45.51 68.239,0"
                transform="matrix(0.13333333,0,0,-0.13333333,0,1056)" clip-path="url(#clipPath3248-0)" />
            <path class="spiral-led" id="led-0-5" data-row="0" data-col="5"
                d="m 1115.94,1038.05 c 0,45.5 -68.24,45.5 -68.24,0 0,-45.511 68.24,-45.511 68.24,0"
                transform="matrix(0.13333333,0,0,-0.13333333,0,1056)" clip-path="url(#clipPath3250-7)" />
            <path class="spiral-led" id="led-0-6" data-row="0" data-col="6"
                d="m 1143.32,913.48 c 0,45.5 -68.28,45.5 -68.28,0 0,-45.511 68.28,-45.511 68.28,0"
                transform="matrix(0.13333333,0,0,-0.13333333,0,1056)" clip-path="url(#clipPath3252-7)" />
            <path class="spiral-led" id="led-0-7" data-row="0" data-col="7"
                d="m 1138.28,778.121 c 0,45.508 -68.28,45.508 -68.28,0 0,-45.5 68.28,-45.5 68.28,0"
                transform="matrix(0.13333333,0,0,-0.13333333,0,1056)" clip-path="url(#clipPath3254-5)" />
            <path class="spiral-led" id="led-4-7" data-row="4" data-col="7"
                d="m 220.98,1228.12 c 0,45.51 -68.25,45.51 -68.25,0 0,-45.5 68.25,-45.5 68.25,0"
                transform="matrix(0.13333333,0,0,-0.13333333,0,1056)" clip-path="url(#clipPath3256-7)" />
            <path class="spiral-led" id="led-4-6" data-row="4" data-col="6"
                d="m 215.941,1097.81 c 0,45.51 -68.242,45.51 -68.242,0 0,-45.51 68.242,-45.51 68.242,0"
                transform="matrix(0.13333333,0,0,-0.13333333,0,1056)" clip-path="url(#clipPath3258-2)" />
            <path class="spiral-led" id="led-4-5" data-row="4" data-col="5"
                d="m 243.32,973.238 c 0,45.512 -68.281,45.512 -68.281,0 0,-45.508 68.281,-45.508 68.281,0"
                transform="matrix(0.13333333,0,0,-0.13333333,0,1056)" clip-path="url(#clipPath3260-4)" />
            <path class="spiral-led" id="led-4-4" data-row="4" data-col="4"
                d="m 311.719,865.23 c 0,45.508 -68.278,45.508 -68.278,0 0,-45.5 68.278,-45.5 68.278,0"
                transform="matrix(0.13333333,0,0,-0.13333333,0,1056)" clip-path="url(#clipPath3262-3)" />
            <path class="spiral-led" id="led-4-3" data-row="4" data-col="3"
                d="m 410.352,788.199 c 0,45.512 -68.282,45.512 -68.282,0 0,-45.5 68.282,-45.5 68.282,0"
                transform="matrix(0.13333333,0,0,-0.13333333,0,1056)" clip-path="url(#clipPath3264-1)" />
            <path class="spiral-led" id="led-4-2" data-row="4" data-col="2"
                d="m 544.262,779.57 c 0,45.508 -68.242,45.508 -68.242,0 0,-45.511 68.242,-45.511 68.242,0"
                transform="matrix(0.13333333,0,0,-0.13333333,0,1056)" clip-path="url(#clipPath3266-4)" />
            <path class="spiral-led" id="led-4-1" data-row="4" data-col="1"
                d="m 648.672,847.969 c 0,45.511 -68.281,45.511 -68.281,0 0,-45.508 68.281,-45.508 68.281,0"
                transform="matrix(0.13333333,0,0,-0.13333333,0,1056)" clip-path="url(#clipPath3268-9)" />
            <path class="spiral-led" id="led-3-7" data-row="3" data-col="7"
                d="m 227.461,760.859 c 0,45.512 -68.242,45.512 -68.242,0 0,-45.55 68.242,-45.55 68.242,0"
                transform="matrix(0.13333333,0,0,-0.13333333,0,1056)" clip-path="url(#clipPath3270-9)" />
            <path class="spiral-led" id="led-3-6" data-row="3" data-col="6"
                d="m 300.898,680.941 c 0,45.508 -68.238,45.508 -68.238,0 0,-45.55 68.238,-45.55 68.238,0"
                transform="matrix(0.13333333,0,0,-0.13333333,0,1056)" clip-path="url(#clipPath3272-6)" />
            <path class="spiral-led" id="led-3-5" data-row="3" data-col="5"
                d="m 411.051,634.141 c 0,45.507 -68.242,45.507 -68.242,0 0,-45.551 68.242,-45.551 68.242,0"
                transform="matrix(0.13333333,0,0,-0.13333333,0,1056)" clip-path="url(#clipPath3274-0)" />
            <path class="spiral-led" id="led-3-4" data-row="3" data-col="4"
                d="m 527.699,631.949 c 0,45.512 -68.25,45.512 -68.25,0 0,-45.5 68.25,-45.5 68.25,0"
                transform="matrix(0.13333333,0,0,-0.13333333,0,1056)" clip-path="url(#clipPath3276-2)" />
            <path class="spiral-led" id="led-3-3" data-row="3" data-col="3"
                d="m 635,673.012 c 0,45.508 -68.281,45.508 -68.281,0 0,-45.512 68.281,-45.512 68.281,0"
                transform="matrix(0.13333333,0,0,-0.13333333,0,1056)" clip-path="url(#clipPath3278-6)" />
            <path class="spiral-led" id="led-3-2" data-row="3" data-col="2"
                d="m 725,752.93 c 0,45.511 -68.281,45.511 -68.281,0 0,-45.508 68.281,-45.508 68.281,0"
                transform="matrix(0.13333333,0,0,-0.13333333,0,1056)" clip-path="url(#clipPath3280-7)" />
            <path class="spiral-led" id="led-3-1" data-row="3" data-col="1"
                d="m 768.91,863.09 c 0,45.5 -68.281,45.5 -68.281,0 0,-45.512 68.281,-45.512 68.281,0"
                transform="matrix(0.13333333,0,0,-0.13333333,0,1056)" clip-path="url(#clipPath3282-9)" />
            <path class="spiral-led" id="led-1-2" data-row="1" data-col="2"
                d="m 930.898,1067.58 c 0,45.51 -68.238,45.51 -68.238,0 0,-45.55 68.238,-45.55 68.238,0"
                transform="matrix(0.13333333,0,0,-0.13333333,0,1056)" clip-path="url(#clipPath3284-1)" />
            <path class="spiral-led" id="led-1-1" data-row="1" data-col="1"
                d="m 812.109,1094.92 c 0,45.51 -68.281,45.51 -68.281,0 0,-45.51 68.281,-45.51 68.281,0"
                transform="matrix(0.13333333,0,0,-0.13333333,0,1056)" clip-path="url(#clipPath3286-6)" />
            <path class="spiral-led" id="led-2-1" data-row="2" data-col="1"
                d="m 822.191,973.238 c 0,45.512 -68.281,45.512 -68.281,0 0,-45.508 68.281,-45.508 68.281,0"
                transform="matrix(0.13333333,0,0,-0.13333333,0,1056)" clip-path="url(#clipPath3288-1)" />
            <path class="spiral-led" id="led-1-3" data-row="1" data-col="3"
                d="m 995.699,959.57 c 0,45.51 -68.238,45.51 -68.238,0 0,-45.511 68.238,-45.511 68.238,0"
                transform="matrix(0.13333333,0,0,-0.13333333,0,1056)" clip-path="url(#clipPath3290-1)" />
            <path class="spiral-led" id="led-2-2" data-row="2" data-col="2"
                d="m 887.34,861.328 c 0,45.512 -68.281,45.512 -68.281,0 0,-45.508 68.281,-45.508 68.281,0"
                transform="matrix(0.13333333,0,0,-0.13333333,0,1056)" clip-path="url(#clipPath3292-5)" />
            <path class="spiral-led" id="led-1-4" data-row="1" data-col="4"
                d="m 1011.56,830.66 c 0,45.551 -68.279,45.551 -68.279,0 0,-45.5 68.279,-45.5 68.279,0"
                transform="matrix(0.13333333,0,0,-0.13333333,0,1056)" clip-path="url(#clipPath3294-0)" />
            <path class="spiral-led" id="led-1-5" data-row="1" data-col="5"
                d="m 1000.04,700.352 c 0,45.507 -68.278,45.507 -68.278,0 0,-45.512 68.278,-45.512 68.278,0"
                transform="matrix(0.13333333,0,0,-0.13333333,0,1056)" clip-path="url(#clipPath3296-3)" />
            <path class="spiral-led" id="led-2-3" data-row="2" data-col="3"
                d="m 866.09,725.551 c 0,45.539 -68.238,45.539 -68.238,0 0,-45.512 68.238,-45.512 68.238,0"
                transform="matrix(0.13333333,0,0,-0.13333333,0,1056)" clip-path="url(#clipPath3298-0)" />
            <path class="spiral-led" id="led-2-7" data-row="2" data-col="7"
                d="m 459.301,479.34 c 0,45.5 -68.25,45.5 -68.25,0 0,-45.512 68.25,-45.512 68.25,0"
                transform="matrix(0.13333333,0,0,-0.13333333,0,1056)" clip-path="url(#clipPath3300-3)" />
            <path class="spiral-led" id="led-2-6" data-row="2" data-col="6"
                d="m 588.91,490.859 c 0,45.512 -68.281,45.512 -68.281,0 0,-45.55 68.281,-45.55 68.281,0"
                transform="matrix(0.13333333,0,0,-0.13333333,0,1056)" clip-path="url(#clipPath3302-3)" />
            <path class="spiral-led" id="led-2-5" data-row="2" data-col="5"
                d="m 709.879,534.77 c 0,45.5 -68.277,45.5 -68.277,0 0,-45.508 68.277,-45.508 68.277,0"
                transform="matrix(0.13333333,0,0,-0.13333333,0,1056)" clip-path="url(#clipPath3304-7)" />
            <path class="spiral-led" id="led-2-4" data-row="2" data-col="4"
                d="m 799.141,617.582 c 0,45.508 -68.243,45.508 -68.243,0 0,-45.551 68.243,-45.551 68.243,0"
                transform="matrix(0.13333333,0,0,-0.13333333,0,1056)" clip-path="url(#clipPath3306-1)" />
            <path class="spiral-led" id="led-1-6" data-row="1" data-col="6"
                d="m 961.879,570.039 c 0,45.512 -68.289,45.512 -68.289,0 0,-45.508 68.289,-45.508 68.289,0"
                transform="matrix(0.13333333,0,0,-0.13333333,0,1056)" clip-path="url(#clipPath3308-6)" />
            <path class="spiral-led" id="led-1-7" data-row="1" data-col="7"
                d="m 884.102,458.441 c 0,45.508 -68.243,45.508 -68.243,0 0,-45.511 68.243,-45.511 68.243,0"
                transform="matrix(0.13333333,0,0,-0.13333333,0,1056)" clip-path="url(#clipPath3310-5)" />
        </g>
        <rect class="center-led" id="led-center" width="18.791592" height="19.003853" x="-399.45349" y="722.40045"
            transform="matrix(0.26458333,0,0,0.26458333,177.40281,-48.738991)" />
    </g>
</svg>